# Blender v2.82 (sub 7) OBJ File: ''
# www.blender.org
mtllib room.mtl
o Cube
v 8.818715 11.079778 -8.818715
v 8.818715 0.000000 -8.818715
v 8.818715 11.079778 8.818715
v 8.818715 0.000000 8.818715
v -8.818715 11.079778 -8.818715
v -8.818715 0.000000 -8.818715
v -8.818715 11.079778 8.818715
v -8.818715 0.000000 8.818715
vt 0.110796 0.125000
vt 0.332389 0.125000
vt 0.332389 0.375000
vt 0.791194 0.125000
vt 0.930398 0.125000
vt 0.930398 0.375000
vt 0.512787 0.125000
vt 0.651991 0.125000
vt 0.651991 0.375000
vt 0.332389 0.875000
vt 0.110796 0.875000
vt 0.110796 0.625000
vt 0.512787 0.625000
vt 0.651991 0.625000
vt 0.651991 0.875000
vt 0.930398 0.875000
vt 0.791194 0.875000
vt 0.791194 0.625000
vt 0.110796 0.375000
vt 0.791194 0.375000
vt 0.512787 0.375000
vt 0.332389 0.625000
vt 0.512787 0.875000
vt 0.930398 0.625000
vn 0.0000 -1.0000 0.0000
vn 0.0000 0.0000 -1.0000
vn 1.0000 0.0000 0.0000
vn 0.0000 1.0000 0.0000
vn -1.0000 0.0000 0.0000
vn 0.0000 0.0000 1.0000
usemtl Material
s off
f 5/1/1 1/2/1 3/3/1
f 3/4/2 4/5/2 8/6/2
f 7/7/3 8/8/3 6/9/3
f 2/10/4 6/11/4 8/12/4
f 1/13/5 2/14/5 4/15/5
f 5/16/6 6/17/6 2/18/6
f 5/1/1 3/3/1 7/19/1
f 3/4/2 8/6/2 7/20/2
f 7/7/3 6/9/3 5/21/3
f 2/10/4 8/12/4 4/22/4
f 1/13/5 4/15/5 3/23/5
f 5/16/6 2/18/6 1/24/6
